<svg width="78" height="78" viewBox="0 0 78 78" version="1.1" xmlns="http://www.w3.org/2000/svg" xmlns:xlink="http://www.w3.org/1999/xlink">
<title>Group</title>
<desc>Created using Figma</desc>
<g id="Canvas" transform="translate(-3141 36)">
<g id="Group">
<g id="Ellipse">
<use xlink:href="#path0_fill" transform="translate(3141 -35.785)" fill="#E5E5E5"/>
</g>
<g id="User">
<g id="Stroke 288">
<use xlink:href="#path1_fill" transform="translate(3165 4.57635)" fill="#B9B8B8"/>
</g>
<g id="Stroke 289">
<use xlink:href="#path2_fill" transform="translate(3171.92 -14.9813)" fill="#B9B8B8"/>
</g>
</g>
</g>
</g>
<defs>
<path id="path0_fill" d="M 78 38.6355C 78 59.9733 60.5391 77.271 39 77.271C 17.4609 77.271 0 59.9733 0 38.6355C 0 17.2977 17.4609 0 39 0C 60.5391 0 78 17.2977 78 38.6355Z"/>
<path id="path1_fill" fill-rule="evenodd" d="M 30 9.00065L 30 15.1593C 30 15.6824 29.5805 16.1059 29.0625 16.1059L 0.937453 16.1059C 0.419544 16.1059 0 15.6824 0 15.1593L 0 9.00065C 0 4.03001 6.71568 0 15 0C 23.2843 0 30 4.03001 30 9.00065Z"/>
<path id="path2_fill" fill-rule="evenodd" d="M 16.1536 8.05333C 16.1536 12.5009 12.5371 16.1067 8.07641 16.1067C 3.61568 16.1067 0 12.5009 0 8.05333C 0 3.60576 3.61568 0 8.07641 0C 12.5371 0 16.1536 3.60576 16.1536 8.05333Z"/>
</defs>
</svg>
