<svg width="15" height="17" viewBox="0 0 15 17" version="1.1" xmlns="http://www.w3.org/2000/svg" xmlns:xlink="http://www.w3.org/1999/xlink">
<title>File</title>
<desc>Created using Figma</desc>
<g id="Canvas" transform="translate(-3252 379)">
<g id="File">
<g id="Stroke 1273">
<use xlink:href="#path0_stroke" transform="translate(3256.4 -373)" fill="#FFFFFF"/>
</g>
<g id="Stroke 1275">
<use xlink:href="#path1_stroke" transform="translate(3256.4 -369.875)" fill="#FFFFFF"/>
</g>
<g id="Stroke 1277">
<use xlink:href="#path1_stroke" transform="translate(3256.4 -366.75)" fill="#FFFFFF"/>
</g>
<g id="Stroke 1279">
<use xlink:href="#path2_stroke" transform="translate(3253 -378)" fill="#FFFFFF"/>
</g>
</g>
</g>
<defs>
<path id="path0_stroke" d="M 0 -0.5C -0.276142 -0.5 -0.5 -0.276142 -0.5 0C -0.5 0.276142 -0.276142 0.5 0 0.5L 0 -0.5ZM 3.09524 0.5C 3.37138 0.5 3.59524 0.276142 3.59524 0C 3.59524 -0.276142 3.37138 -0.5 3.09524 -0.5L 3.09524 0.5ZM 0 0.5L 3.09524 0.5L 3.09524 -0.5L 0 -0.5L 0 0.5Z"/>
<path id="path1_stroke" d="M 0 -0.5C -0.276142 -0.5 -0.5 -0.276142 -0.5 0C -0.5 0.276142 -0.276142 0.5 0 0.5L 0 -0.5ZM 6.19048 0.5C 6.46662 0.5 6.69048 0.276142 6.69048 0C 6.69048 -0.276142 6.46662 -0.5 6.19048 -0.5L 6.19048 0.5ZM 0 0.5L 6.19048 0.5L 6.19048 -0.5L 0 -0.5L 0 0.5Z"/>
<path id="path2_stroke" d="M 8.91645 0L 9.27001 -0.353545C 9.17625 -0.447318 9.04906 -0.5 8.91645 -0.5L 8.91645 0ZM 13 4.08375L 13 4.58375C 13.2022 4.58375 13.3845 4.46193 13.4619 4.2751C 13.5393 4.08826 13.4966 3.87321 13.3536 3.73021L 13 4.08375ZM 12.5 4.08375L 12.5 12L 13.5 12L 13.5 4.08375L 12.5 4.08375ZM 12.5 12C 12.5 13.3808 11.3808 14.5 10.0001 14.5L 10.0001 15.5C 11.9331 15.5 13.5 13.933 13.5 12L 12.5 12ZM 10.0001 14.5L 2.99991 14.5L 2.99991 15.5L 10.0001 15.5L 10.0001 14.5ZM 2.99991 14.5C 1.61946 14.5 0.5 13.3807 0.5 12L -0.5 12C -0.5 13.933 1.0672 15.5 2.99991 15.5L 2.99991 14.5ZM 0.5 12L 0.5 0.5L -0.5 0.5L -0.5 12L 0.5 12ZM 0.5 0.5L 0.50019 0.5L 0.50019 -0.5C -0.0524128 -0.5 -0.5 -0.0520237 -0.5 0.5L 0.5 0.5ZM 0.50019 0.5L 8.91645 0.5L 8.91645 -0.5L 0.50019 -0.5L 0.50019 0.5ZM 8.56289 0.353545L 12.6464 4.43729L 13.3536 3.73021L 9.27001 -0.353545L 8.56289 0.353545ZM 13 3.58375L 9.41664 3.58375L 9.41664 4.58375L 13 4.58375L 13 3.58375ZM 9.41664 3.58375L 9.41645 3.58375L 8.41645 3.58375C 8.41645 4.13629 8.86424 4.58375 9.41664 4.58375L 9.41664 3.58375ZM 9.41645 3.58375L 9.41645 0L 8.41645 0L 8.41645 3.58375L 9.41645 3.58375Z"/>
</defs>
</svg>
