<svg width="16" height="12" viewBox="0 0 16 12" version="1.1" xmlns="http://www.w3.org/2000/svg" xmlns:xlink="http://www.w3.org/1999/xlink">
<title>Vector</title>
<desc>Created using Figma</desc>
<g id="Canvas" transform="translate(-2468 -1786)">
<g id="Vector">
<use xlink:href="#path0_fill" transform="translate(2468 1786)" fill="#E6E9EE"/>
</g>
</g>
<defs>
<path id="path0_fill" fill-rule="evenodd" d="M 14.999 11.999L 0.999 11.999C 0.447 11.999 7.08008e-06 11.552 7.08008e-06 10.999L 7.08008e-06 3.14201L 7.391 8.79398C 7.409 8.80698 7.43001 8.81002 7.44801 8.82102C 7.50501 8.86102 7.56701 8.88499 7.63001 8.91099C 7.68901 8.93499 7.74501 8.96002 7.80601 8.97202C 7.86801 8.98402 7.928 8.98201 7.99 8.98301C 8.056 8.98301 8.12 8.985 8.185 8.973C 8.243 8.962 8.297 8.93803 8.353 8.91703C 8.42 8.89003 8.48399 8.86499 8.54499 8.82499C 8.56099 8.81399 8.58201 8.81199 8.59901 8.79899L 15.999 3.24198L 15.999 10.999C 15.999 11.552 15.552 11.999 14.999 11.999ZM 7.08008e-06 0.999C 7.08008e-06 0.447 0.447 -2.34375e-05 0.999 -2.34375e-05L 14.999 -2.34375e-05C 15.552 -2.34375e-05 15.999 0.447 15.999 0.999L 7.99799 7.16599L 7.08008e-06 0.999Z"/>
</defs>
</svg>
