<svg width="33" height="32" viewBox="0 0 33 32" version="1.1" xmlns="http://www.w3.org/2000/svg" xmlns:xlink="http://www.w3.org/1999/xlink">
<title>google+</title>
<desc>Created using Figma</desc>
<g id="Canvas" transform="translate(-3255 -273)">
<g id="google+">
<g id="bg">
<use xlink:href="#path0_fill" transform="translate(3255 273.299)" fill="#DD4B39"/>
</g>
<g id="&#239;&#131;&#149;">
<use xlink:href="#path1_fill" transform="translate(3262.59 283.767)" fill="#FFFFFF"/>
</g>
</g>
</g>
<defs>
<path id="path0_fill" d="M 0 15.8505C 0 7.0965 7.0965 0 15.8505 0L 16.3601 0C 25.114 0 32.2105 7.0965 32.2105 15.8505C 32.2105 24.6044 25.114 31.7009 16.3601 31.7009L 15.8505 31.7009C 7.0965 31.7009 0 24.6044 0 15.8505Z"/>
<path id="path1_fill" d="M 11.6233 5.97046C 11.6233 5.58835 11.5828 5.29381 11.5262 4.99927L 5.92893 4.99927L 5.92893 7.00534L 9.29378 7.00534C 9.15627 7.85713 8.27462 9.5209 5.92893 9.5209C 3.90679 9.5209 2.25671 7.87305 2.25671 5.83513C 2.25671 3.79721 3.90679 2.14937 5.92893 2.14937C 7.0856 2.14937 7.85401 2.63496 8.2908 3.04892L 9.90042 1.52844C 8.86508 0.573164 7.53047 0 5.92893 0C 2.65305 0 0 2.61108 0 5.83513C 0 9.05918 2.65305 11.6703 5.92893 11.6703C 9.3504 11.6703 11.6233 9.30596 11.6233 5.97046ZM 18.6361 4.99927L 16.9456 4.99927L 16.9456 3.3355L 15.247 3.3355L 15.247 4.99927L 13.5565 4.99927L 13.5565 6.671L 15.247 6.671L 15.247 8.33476L 16.9456 8.33476L 16.9456 6.671L 18.6361 6.671L 18.6361 4.99927Z"/>
</defs>
</svg>
