<svg width="15" height="13" viewBox="0 0 15 13" version="1.1" xmlns="http://www.w3.org/2000/svg" xmlns:xlink="http://www.w3.org/1999/xlink">
<title>&#239;&#130;&#153;</title>
<desc>Created using Figma</desc>
<g id="Canvas" transform="translate(-2737 -2122)">
<g id="&#239;&#130;&#153;">
<use xlink:href="#path0_fill" transform="translate(2737 2122.15)" fill="#AAB2BD"/>
</g>
</g>
<defs>
<path id="path0_fill" d="M 14.8174 1.43016C 14.2721 1.66539 13.6798 1.83475 13.0687 1.90061C 13.6986 1.52425 14.1781 0.931487 14.4038 0.225815C 13.8208 0.573947 13.1627 0.827988 12.4764 0.959714C 11.9216 0.366949 11.1319 0 10.2575 0C 8.57456 0 7.22068 1.3643 7.22068 3.03909C 7.22068 3.27432 7.24889 3.50954 7.2959 3.73536C 4.77618 3.60363 2.52912 2.39929 1.03421 0.555129C 0.770958 1.00676 0.620527 1.52425 0.620527 2.08879C 0.620527 3.14259 1.15644 4.07408 1.9744 4.6198C 1.4761 4.60098 1.00601 4.45985 0.601723 4.23403C 0.601723 4.24344 0.601723 4.26226 0.601723 4.27167C 0.601723 5.74888 1.64534 6.97204 3.03682 7.25431C 2.78297 7.32017 2.51031 7.35781 2.23766 7.35781C 2.04022 7.35781 1.85218 7.33899 1.66414 7.31076C 2.04962 8.51511 3.16845 9.39014 4.50352 9.41837C 3.45991 10.2369 2.15304 10.7168 0.73335 10.7168C 0.479498 10.7168 0.24445 10.7074 0 10.6792C 1.34448 11.5448 2.9428 12.0435 4.66336 12.0435C 10.2481 12.0435 13.3037 7.41426 13.3037 3.39663C 13.3037 3.26491 13.3037 3.13318 13.2943 3.00146C 13.8866 2.56865 14.4038 2.03234 14.8174 1.43016Z"/>
</defs>
</svg>
