<svg width="22" height="15" viewBox="0 0 22 15" version="1.1" xmlns="http://www.w3.org/2000/svg" xmlns:xlink="http://www.w3.org/1999/xlink">
<title>&#239;&#131;&#149;</title>
<desc>Created using Figma</desc>
<g id="Canvas" transform="translate(-2774 -2121)">
<g id="&#239;&#131;&#149;">
<use xlink:href="#path0_fill" transform="translate(2774 2121.27)" fill="#AAB2BD"/>
</g>
</g>
<defs>
<path id="path0_fill" d="M 13.5106 7.05672C 13.5106 6.60509 13.4636 6.25696 13.3977 5.90883L 6.89161 5.90883L 6.89161 8.27989L 10.8028 8.27989C 10.643 9.28664 9.61817 11.2531 6.89161 11.2531C 4.54113 11.2531 2.62314 9.30546 2.62314 6.89677C 2.62314 4.48807 4.54113 2.54042 6.89161 2.54042C 8.23609 2.54042 9.12927 3.11437 9.63698 3.60363L 11.508 1.80652C 10.3045 0.677445 8.75319 0 6.89161 0C 3.08383 0 0 3.08614 0 6.89677C 0 10.7074 3.08383 13.7935 6.89161 13.7935C 10.8686 13.7935 13.5106 10.9991 13.5106 7.05672ZM 21.662 5.90883L 19.697 5.90883L 19.697 3.94235L 17.7226 3.94235L 17.7226 5.90883L 15.7576 5.90883L 15.7576 7.88471L 17.7226 7.88471L 17.7226 9.85118L 19.697 9.85118L 19.697 7.88471L 21.662 7.88471L 21.662 5.90883Z"/>
</defs>
</svg>
