<svg width="24" height="24" viewBox="0 0 24 24" version="1.1" xmlns="http://www.w3.org/2000/svg" xmlns:xlink="http://www.w3.org/1999/xlink">
<title>Lock 3</title>
<desc>Created using Figma</desc>
<g id="Canvas" transform="translate(-3092 457)">
<g id="Lock 3">
<g id="Stroke 1283">
<use xlink:href="#path0_stroke" transform="translate(3101.04 -450.077)" fill="#5F5E5D"/>
</g>
<g id="Stroke 1285">
<use xlink:href="#path1_stroke" transform="translate(3093 -456)" fill="#5F5E5D"/>
</g>
</g>
</g>
<defs>
<path id="path0_stroke" d="M 5.59487 8.87873L 5.10315 8.96934L 5.10631 8.9865L 5.11067 9.0034L 5.59487 8.87873ZM 4.93579 5.3019L 4.59591 4.93518L 4.39424 5.12209L 4.44407 5.39251L 4.93579 5.3019ZM 5.87675 2.50515L 5.38381 2.58887L 5.38383 2.58899L 5.87675 2.50515ZM 3.49296 0.0475653L 3.58099 -0.444624L 3.5809 -0.44464L 3.49296 0.0475653ZM 0.98725 5.3019L 1.47897 5.39251L 1.5288 5.1221L 1.32714 4.93519L 0.98725 5.3019ZM 0.328167 8.87873L 0.812375 9.0034L 0.816726 8.9865L 0.819889 8.96934L 0.328167 8.87873ZM 6.0866 8.78813L 5.42751 5.21129L 4.44407 5.39251L 5.10315 8.96934L 6.0866 8.78813ZM 5.27567 5.66862C 6.11195 4.89355 6.5894 3.71318 6.36967 2.42131L 5.38383 2.58899C 5.54359 3.52828 5.19971 4.37558 4.59591 4.93518L 5.27567 5.66862ZM 6.36969 2.42143C 6.12696 0.992208 4.99447 -0.19181 3.58099 -0.444624L 3.40493 0.539755C 4.38486 0.715024 5.20854 1.55684 5.38381 2.58887L 6.36969 2.42143ZM 3.5809 -0.44464C 1.38306 -0.837343 -0.5 0.895449 -0.5 3.04598L 0.5 3.04598C 0.5 1.47393 1.86286 0.264224 3.40501 0.53977L 3.5809 -0.44464ZM -0.5 3.04598C -0.5 4.09159 -0.0507933 5.0215 0.647357 5.6686L 1.32714 4.93519C 0.82171 4.46671 0.5 3.79796 0.5 3.04598L -0.5 3.04598ZM 0.495528 5.21129L -0.163555 8.78813L 0.819889 8.96934L 1.47897 5.39251L 0.495528 5.21129ZM -0.156042 8.75406C -0.39881 9.69697 0.289329 10.6538 1.28242 10.6538L 1.28242 9.65382C 0.979338 9.65382 0.72331 9.34933 0.812375 9.0034L -0.156042 8.75406ZM 1.28242 10.6538L 4.64062 10.6538L 4.64062 9.65382L 1.28242 9.65382L 1.28242 10.6538ZM 4.64062 10.6538C 5.63309 10.6538 6.32189 9.69713 6.07908 8.75406L 5.11067 9.0034C 5.19969 9.34916 4.94341 9.65382 4.64062 9.65382L 4.64062 10.6538Z"/>
<path id="path1_stroke" d="M 21.5 11C 21.5 16.7991 16.7991 21.5 11 21.5L 11 22.5C 17.3514 22.5 22.5 17.3514 22.5 11L 21.5 11ZM 11 21.5C 5.20093 21.5 0.5 16.7991 0.5 11L -0.5 11C -0.5 17.3514 4.64865 22.5 11 22.5L 11 21.5ZM 0.5 11C 0.5 5.20093 5.20093 0.5 11 0.5L 11 -0.5C 4.64865 -0.5 -0.5 4.64865 -0.5 11L 0.5 11ZM 11 0.5C 16.7991 0.5 21.5 5.20093 21.5 11L 22.5 11C 22.5 4.64865 17.3514 -0.5 11 -0.5L 11 0.5Z"/>
</defs>
</svg>
