<svg width="21" height="16" viewBox="0 0 21 16" version="1.1" xmlns="http://www.w3.org/2000/svg" xmlns:xlink="http://www.w3.org/1999/xlink">
<title>Mail</title>
<desc>Created using Figma</desc>
<g id="Canvas" transform="translate(-3353 -193)">
<g id="Mail">
<g id="Stroke 177">
<use xlink:href="#path0_stroke" transform="translate(3354 194.047)" fill="#FFFFFF"/>
</g>
<g id="Stroke 178">
<use xlink:href="#path1_stroke" transform="translate(3354.12 194.311)" fill="#FFFFFF"/>
</g>
<g id="Stroke 179">
<use xlink:href="#path2_stroke" transform="translate(3367.18 200.209)" fill="#FFFFFF"/>
</g>
<g id="Stroke 180">
<use xlink:href="#path3_stroke" transform="translate(3354.12 200.285)" fill="#FFFFFF"/>
</g>
</g>
</g>
<defs>
<path id="path0_stroke" d="M 18.373 13.3692L 0.627 13.3692L 0.627 14.3692L 18.373 14.3692L 18.373 13.3692ZM 0.627 13.3692C 0.564052 13.3692 0.5 13.3153 0.5 13.2324L -0.5 13.2324C -0.5 13.853 -0.00276063 14.3692 0.627 14.3692L 0.627 13.3692ZM 0.5 13.2324L 0.5 0.636775L -0.5 0.636775L -0.5 13.2324L 0.5 13.2324ZM 0.5 0.636775C 0.5 0.553843 0.564052 0.5 0.627 0.5L 0.627 -0.5C -0.00276077 -0.5 -0.5 0.0161995 -0.5 0.636775L 0.5 0.636775ZM 0.627 0.5L 18.373 0.5L 18.373 -0.5L 0.627 -0.5L 0.627 0.5ZM 18.373 0.5C 18.4359 0.5 18.5 0.553843 18.5 0.636775L 19.5 0.636775C 19.5 0.0161997 19.0028 -0.5 18.373 -0.5L 18.373 0.5ZM 18.5 0.636775L 18.5 13.2324L 19.5 13.2324L 19.5 0.636775L 18.5 0.636775ZM 18.5 13.2324C 18.5 13.3153 18.4359 13.3692 18.373 13.3692L 18.373 14.3692C 19.0028 14.3692 19.5 13.853 19.5 13.2324L 18.5 13.2324Z"/>
<path id="path1_stroke" d="M 12.069 6.93016L 12.4224 7.28398L 12.4288 7.27731L 12.069 6.93016ZM 6.68562 6.93016L 6.32572 7.27737L 6.33228 7.28392L 6.68562 6.93016ZM 18.3947 -0.347148L 11.7091 6.58301L 12.4288 7.27731L 19.1144 0.347148L 18.3947 -0.347148ZM 11.7156 6.57639C 10.4257 7.86481 8.32892 7.86481 7.03897 6.57639L 6.33228 7.28392C 8.01266 8.9623 10.7419 8.9623 12.4223 7.28392L 11.7156 6.57639ZM 7.04547 6.58301L 0.359845 -0.347148L -0.359845 0.347148L 6.32578 7.27731L 7.04547 6.58301Z"/>
<path id="path2_stroke" d="M -0.404463 0.293955L 5.12454 7.90149L 5.93346 7.31358L 0.404463 -0.293955L -0.404463 0.293955Z"/>
<path id="path3_stroke" d="M 5.40412 -0.30264L -0.398006 7.32781L 0.398006 7.93309L 6.20013 0.30264L 5.40412 -0.30264Z"/>
</defs>
</svg>
