<svg width="40" height="40" viewBox="0 0 40 40" version="1.1" xmlns="http://www.w3.org/2000/svg" xmlns:xlink="http://www.w3.org/1999/xlink">
<title>arrow </title>
<desc>Created using Figma</desc>
<g id="Canvas" transform="translate(-2813 -93)">
<g id="arrow ">
<g id="Ellipse 3">
<use xlink:href="#path0_fill" transform="translate(2813 93)" fill="#737271" fill-opacity="0.3"/>
</g>
<g id="Vector 2 (Stroke)">
<use xlink:href="#path1_fill" transform="matrix(-4.37114e-08 -1 1 -4.37114e-08 2830.36 119.612)" fill="#FFFFFF"/>
</g>
</g>
</g>
<defs>
<path id="path0_fill" d="M 40 20C 40 31.0457 31.0457 40 20 40C 8.9543 40 0 31.0457 0 20C 0 8.9543 8.9543 0 20 0C 31.0457 0 40 8.9543 40 20Z"/>
<path id="path1_fill" fill-rule="evenodd" d="M 5.95272 6.28825L 0.582727 1.46773C 0.271564 1.1884 0.271564 0.700851 0.582727 0.421527C 0.849856 0.181731 1.25475 0.181731 1.52188 0.421527L 6.47887 4.87131L 11.4359 0.421527C 11.703 0.181731 12.1079 0.181731 12.375 0.421527C 12.6862 0.700851 12.6862 1.1884 12.375 1.46773L 7.00502 6.28825L 6.47887 6.76056L 5.95272 6.28825Z"/>
</defs>
</svg>
