<svg width="24" height="24" viewBox="0 0 24 24" version="1.1" xmlns="http://www.w3.org/2000/svg" xmlns:xlink="http://www.w3.org/1999/xlink">
<title>Vector</title>
<desc>Created using Figma</desc>
<g id="Canvas" transform="translate(-3094 242)">
<g id="Vector">
<use xlink:href="#path0_stroke" transform="translate(3095 -240.621)" fill="#FFFFFF"/>
</g>
</g>
<defs>
<path id="path0_stroke" d="M 15.6355 14.4012C 15.4368 14.2094 15.1203 14.215 14.9285 14.4136C 14.7367 14.6123 14.7422 14.9288 14.9409 15.1206L 15.6355 14.4012ZM 21.6527 21.6011C 21.8514 21.7929 22.1679 21.7873 22.3597 21.5887C 22.5515 21.39 22.546 21.0735 22.3473 20.8817L 21.6527 21.6011ZM 17.3984 8.64045C 17.3984 13.1202 13.6322 16.7809 8.94942 16.7809L 8.94942 17.7809C 14.1511 17.7809 18.3984 13.7053 18.3984 8.64045L 17.3984 8.64045ZM 8.94942 16.7809C 4.26618 16.7809 0.5 13.1202 0.5 8.64045L -0.5 8.64045C -0.5 13.7053 3.74732 17.7809 8.94942 17.7809L 8.94942 16.7809ZM 0.5 8.64045C 0.5 4.16074 4.26618 0.5 8.94942 0.5L 8.94942 -0.5C 3.74732 -0.5 -0.5 3.57561 -0.5 8.64045L 0.5 8.64045ZM 8.94942 0.5C 13.6322 0.5 17.3984 4.16072 17.3984 8.64045L 18.3984 8.64045C 18.3984 3.57563 14.1511 -0.5 8.94942 -0.5L 8.94942 0.5ZM 14.9409 15.1206L 21.6527 21.6011L 22.3473 20.8817L 15.6355 14.4012L 14.9409 15.1206Z"/>
</defs>
</svg>
