<svg width="122" height="105" viewBox="0 0 122 105" version="1.1" xmlns="http://www.w3.org/2000/svg" xmlns:xlink="http://www.w3.org/1999/xlink">
<title>Photo</title>
<desc>Created using Figma</desc>
<g id="Canvas" transform="translate(-2207 -1328)">
<g id="Photo">
<g id="Stroke 277">
<use xlink:href="#path0_stroke" transform="translate(2208.99 1329.68)" fill="#737271"/>
</g>
<g id="Stroke 279">
<use xlink:href="#path1_stroke" transform="translate(2220.28 1366.84)" fill="#737271"/>
</g>
<g id="Stroke 281">
<use xlink:href="#path2_stroke" transform="translate(2244.91 1354.98)" fill="#737271"/>
</g>
</g>
</g>
<defs>
<path id="path0_stroke" d="M 94.7749 101.801L 94.7913 100.301L 94.7912 100.301L 94.7749 101.801ZM 21.7611 101.004L 21.7446 102.504L 21.7447 102.504L 21.7611 101.004ZM 0.00176559 81.9036L -1.49807 81.8816L -1.49807 81.8817L 0.00176559 81.9036ZM 0.931251 18.6289L 2.43109 18.6509L 2.43109 18.6508L 0.931251 18.6289ZM 23.2537 0.00152013L 23.2701 -1.49839L 23.2698 -1.49839L 23.2537 0.00152013ZM 96.2674 0.801393L 96.251 2.3013L 96.251 2.3013L 96.2674 0.801393ZM 118.027 19.9014L 116.527 19.8791L 116.527 19.8794L 118.027 19.9014ZM 117.097 83.1737L 115.597 83.1517L 115.597 83.1518L 117.097 83.1737ZM 94.7912 100.301L 21.7775 99.5037L 21.7447 102.504L 94.7585 103.301L 94.7912 100.301ZM 21.7775 99.5037C 10.2076 99.377 1.3644 91.2989 1.5016 81.9256L -1.49807 81.8817C -1.66578 93.3391 8.9709 102.364 21.7446 102.504L 21.7775 99.5037ZM 1.5016 81.9257L 2.43109 18.6509L -0.568587 18.6068L -1.49807 81.8816L 1.5016 81.9257ZM 2.43109 18.6508C 2.56839 9.26637 11.6627 1.37699 23.2375 1.50143L 23.2698 -1.49839C 10.496 -1.63573 -0.40098 7.15103 -0.568588 18.6069L 2.43109 18.6508ZM 23.2372 1.50143L 96.251 2.3013L 96.2839 -0.698517L 23.2701 -1.49839L 23.2372 1.50143ZM 96.251 2.3013C 107.821 2.42803 116.666 10.5064 116.527 19.8791L 119.527 19.9237C 119.697 8.46576 109.057 -0.558617 96.2839 -0.698517L 96.251 2.3013ZM 116.527 19.8794L 115.597 83.1517L 118.597 83.1958L 119.527 19.9234L 116.527 19.8794ZM 115.597 83.1518C 115.46 92.5365 106.366 100.428 94.7913 100.301L 94.7584 103.301C 107.533 103.441 118.43 94.6513 118.597 83.1957L 115.597 83.1518Z"/>
<path id="path1_stroke" d="M 94.5268 45.9288L 95.7925 45.1239C 95.7832 45.1092 95.7737 45.0948 95.7639 45.0805L 94.5268 45.9288ZM 63.2661 0.340905L 62.0004 1.14599C 62.0097 1.16056 62.0192 1.17496 62.029 1.18921L 63.2661 0.340905ZM 62.0243 0.326362L 63.2289 1.22022C 63.2423 1.20215 63.2553 1.18377 63.2679 1.16511L 62.0243 0.326362ZM 37.2429 33.7223L 36.0383 32.8284C 36.0245 32.847 36.0112 32.8659 35.9982 32.8852L 37.2429 33.7223ZM 36.0184 33.732L 37.252 32.8787C 37.2225 32.8359 37.1907 32.7948 37.1569 32.7553L 36.0184 33.732ZM 22.4621 17.9284L 21.2297 18.7835C 21.2589 18.8256 21.2903 18.8661 21.3236 18.905L 22.4621 17.9284ZM 21.245 17.9284L 22.4234 18.8565C 22.4421 18.8327 22.4601 18.8084 22.4774 18.7835L 21.245 17.9284ZM 0.129911 44.7387L -1.0485 43.8106C -1.06768 43.835 -1.0861 43.8599 -1.10373 43.8854L 0.129911 44.7387ZM 0.729896 45.8779L 0.748627 44.378L 0.748377 44.378L 0.729896 45.8779ZM 93.8923 47.0414L 93.8736 48.5412L 93.8736 48.5412L 93.8923 47.0414ZM 95.7639 45.0805L 64.5032 -0.507396L 62.029 1.18921L 93.2897 46.7771L 95.7639 45.0805ZM 64.5317 -0.464177C 63.6626 -1.83044 61.6786 -1.84364 60.7807 -0.512388L 63.2679 1.16511C 62.9651 1.61408 62.299 1.61542 62.0004 1.14599L 64.5317 -0.464177ZM 60.8197 -0.567496L 36.0383 32.8284L 38.4475 34.6161L 63.2289 1.22022L 60.8197 -0.567496ZM 35.9982 32.8852C 36.2953 32.4434 36.9434 32.4324 37.252 32.8787L 34.7847 34.5853C 35.6835 35.8847 37.6102 35.864 38.4876 34.5593L 35.9982 32.8852ZM 37.1569 32.7553L 23.6007 16.9518L 21.3236 18.905L 34.8799 34.7086L 37.1569 32.7553ZM 23.6946 17.0733C 22.8053 15.7917 20.9018 15.7917 20.0125 17.0733L 22.4774 18.7835C 22.1734 19.2216 21.5337 19.2216 21.2297 18.7835L 23.6946 17.0733ZM 20.0666 17.0003L -1.0485 43.8106L 1.30832 45.6668L 22.4234 18.8565L 20.0666 17.0003ZM -1.10373 43.8854C -2.13691 45.3791 -1.04848 47.3561 0.711415 47.3778L 0.748377 44.378C 1.32798 44.3852 1.73282 45.0581 1.36355 45.592L -1.10373 43.8854ZM 0.711165 47.3778L 93.8736 48.5412L 93.9111 45.5415L 0.748627 44.378L 0.711165 47.3778ZM 93.8736 48.5412C 95.6055 48.5628 96.7647 46.6527 95.7925 45.1239L 93.261 46.7337C 92.9085 46.1793 93.3448 45.5344 93.9111 45.5415L 93.8736 48.5412Z"/>
<path id="path2_stroke" d="M 10.9236 21.8156L 10.9046 23.3155L 10.9052 23.3155L 10.9236 21.8156ZM 0.000936297 10.7701L 1.50081 10.7897L 1.50082 10.789L 0.000936297 10.7701ZM 11.2039 0.000866525L 11.223 -1.49901L 11.2224 -1.49902L 11.2039 0.000866525ZM 20.6292 11.0274C 20.5637 16.2015 16.2456 20.3809 10.9421 20.3157L 10.9052 23.3155C 17.8227 23.4005 23.542 17.9378 23.629 11.0654L 20.6292 11.0274ZM 10.9427 20.3157C 5.63994 20.2484 1.43322 15.9637 1.50081 10.7897L -1.49894 10.7505C -1.58872 17.623 3.98629 23.2276 10.9046 23.3155L 10.9427 20.3157ZM 1.50082 10.789C 1.5663 5.61447 5.88244 1.43554 11.1855 1.50075L 11.2224 -1.49902C 4.30443 -1.58409 -1.41198 3.87909 -1.49894 10.7511L 1.50082 10.789ZM 11.1849 1.50075C 16.4875 1.56805 20.6947 5.85274 20.6292 11.0274L 23.629 11.0654C 23.7159 4.19346 18.1414 -1.41119 11.223 -1.49901L 11.1849 1.50075Z"/>
</defs>
</svg>
