<svg width="33" height="32" viewBox="0 0 33 32" version="1.1" xmlns="http://www.w3.org/2000/svg" xmlns:xlink="http://www.w3.org/1999/xlink">
<title>twitter</title>
<desc>Created using Figma</desc>
<g id="Canvas" transform="translate(-3375 -273)">
<g id="twitter">
<g id="bg">
<use xlink:href="#path0_fill" transform="translate(3375.79 273.299)" fill="#1DA1F2"/>
</g>
<g id="&#239;&#130;&#153;">
<use xlink:href="#path1_fill" transform="translate(3386.73 284.508)" fill="#FFFFFF"/>
</g>
</g>
</g>
<defs>
<path id="path0_fill" d="M 0 15.8505C 0 7.0965 7.0965 0 15.8505 0L 16.3601 0C 25.114 0 32.2105 7.0965 32.2105 15.8505C 32.2105 24.6044 25.114 31.7009 16.3601 31.7009L 15.8505 31.7009C 7.0965 31.7009 0 24.6044 0 15.8505Z"/>
<path id="path1_fill" d="M 12.7476 1.21001C 12.2785 1.40903 11.7689 1.55232 11.2431 1.60804C 11.7851 1.28962 12.1976 0.788101 12.3917 0.191055C 11.8902 0.485598 11.324 0.700534 10.7335 0.811983C 10.2563 0.310464 9.57688 0 8.82464 0C 7.37679 0 6.21203 1.15429 6.21203 2.57128C 6.21203 2.77029 6.2363 2.96931 6.27674 3.16036C 4.109 3.04892 2.17583 2.02996 0.889744 0.469676C 0.663264 0.851786 0.533846 1.28962 0.533846 1.76726C 0.533846 2.65885 0.994895 3.44695 1.6986 3.90866C 1.26991 3.89274 0.865478 3.77333 0.517669 3.58228C 0.517669 3.59024 0.517669 3.60616 0.517669 3.61412C 0.517669 4.86394 1.4155 5.89882 2.61261 6.13763C 2.39422 6.19336 2.15965 6.2252 1.92508 6.2252C 1.75522 6.2252 1.59345 6.20928 1.43168 6.1854C 1.76331 7.20436 2.72585 7.94469 3.87443 7.96858C 2.9766 8.66115 1.85229 9.06714 0.630909 9.06714C 0.412518 9.06714 0.210303 9.05918 0 9.0353C 1.15667 9.76768 2.53173 10.1896 4.01194 10.1896C 8.81655 10.1896 11.4453 6.27297 11.4453 2.87378C 11.4453 2.76233 11.4453 2.65089 11.4373 2.53944C 11.9468 2.17325 12.3917 1.71949 12.7476 1.21001Z"/>
</defs>
</svg>
