<svg width="23" height="24" viewBox="0 0 23 24" version="1.1" xmlns="http://www.w3.org/2000/svg" xmlns:xlink="http://www.w3.org/1999/xlink">
<title>Vector</title>
<desc>Created using Figma</desc>
<g id="Canvas" transform="translate(-3020 457)">
<g id="Vector">
<use xlink:href="#path0_stroke" transform="translate(3021 -456)" fill="#5F5E5D"/>
</g>
</g>
<defs>
<path id="path0_stroke" d="M 14.4875 7.68808C 14.4875 7.96423 14.7114 8.18808 14.9875 8.18808C 15.2636 8.18808 15.4875 7.96423 15.4875 7.68808L 14.4875 7.68808ZM 15.4875 14.3339C 15.4875 14.0578 15.2636 13.8339 14.9875 13.8339C 14.7114 13.8339 14.4875 14.0578 14.4875 14.3339L 15.4875 14.3339ZM 8.85629 10.4998C 8.58015 10.4998 8.35629 10.7237 8.35629 10.9998C 8.35629 11.276 8.58015 11.4998 8.85629 11.4998L 8.85629 10.4998ZM 20.6807 11.4998C 20.9569 11.4998 21.1807 11.276 21.1807 10.9998C 21.1807 10.7237 20.9569 10.4998 20.6807 10.4998L 20.6807 11.4998ZM 17.2399 14.6471C 17.0574 14.8543 17.0775 15.1703 17.2847 15.3528C 17.4919 15.5353 17.8079 15.5153 17.9904 15.308L 17.2399 14.6471ZM 21.1185 10.9997L 21.4938 11.3302L 21.7848 10.9997L 21.4938 10.6692L 21.1185 10.9997ZM 17.9904 6.69188C 17.8079 6.48466 17.492 6.46464 17.2848 6.64716C 17.0775 6.82968 17.0575 7.14563 17.24 7.35285L 17.9904 6.69188ZM 15.4875 7.68808L 15.4875 0.6875L 14.4875 0.6875L 14.4875 7.68808L 15.4875 7.68808ZM 15.4875 0.6875C 15.4875 0.0356369 14.9629 -0.5 14.3063 -0.5L 14.3063 0.5C 14.4022 0.5 14.4875 0.579446 14.4875 0.6875L 15.4875 0.6875ZM 14.3063 -0.5L 0.681636 -0.5L 0.681636 0.5L 14.3063 0.5L 14.3063 -0.5ZM 0.681636 -0.5C 0.024855 -0.5 -0.5 0.0354108 -0.5 0.6875L 0.5 0.6875C 0.5 0.579673 0.585129 0.5 0.681636 0.5L 0.681636 -0.5ZM -0.5 0.6875L -0.5 17.875L 0.5 17.875L 0.5 0.6875L -0.5 0.6875ZM -0.5 17.875C -0.5 20.4248 1.54999 22.5 4.08746 22.5L 4.08746 21.5C 2.11085 21.5 0.5 19.8811 0.5 17.875L -0.5 17.875ZM 4.08746 22.5L 10.9 22.5L 10.9 21.5L 4.08746 21.5L 4.08746 22.5ZM 10.9 22.5C 13.438 22.5 15.4875 20.4247 15.4875 17.875L 14.4875 17.875C 14.4875 19.8811 12.8771 21.5 10.9 21.5L 10.9 22.5ZM 15.4875 17.875L 15.4875 14.3339L 14.4875 14.3339L 14.4875 17.875L 15.4875 17.875ZM 8.85629 11.4998L 20.6807 11.4998L 20.6807 10.4998L 8.85629 10.4998L 8.85629 11.4998ZM 17.9904 15.308L 21.4938 11.3302L 20.7433 10.6692L 17.2399 14.6471L 17.9904 15.308ZM 21.4938 10.6692L 17.9904 6.69188L 17.24 7.35285L 20.7433 11.3302L 21.4938 10.6692Z"/>
</defs>
</svg>
