<svg width="33" height="32" viewBox="0 0 33 32" version="1.1" xmlns="http://www.w3.org/2000/svg" xmlns:xlink="http://www.w3.org/1999/xlink">
<title>VK</title>
<desc>Created using Figma</desc>
<g id="Canvas" transform="translate(-3295 -273)">
<g id="VK">
<g id="bg">
<use xlink:href="#path0_fill" transform="translate(3295.26 273.299)" fill="#45668E"/>
</g>
<g id="&#239;&#134;&#137;">
<use xlink:href="#path1_fill" transform="translate(3302.79 285.186)" fill="#FFFFFF"/>
</g>
</g>
</g>
<defs>
<path id="path0_fill" d="M 0 15.8505C 0 7.0965 7.0965 0 15.8505 0L 16.3601 0C 25.114 0 32.2105 7.0965 32.2105 15.8505C 32.2105 24.6044 25.114 31.7009 16.3601 31.7009L 15.8505 31.7009C 7.0965 31.7009 0 24.6044 0 15.8505Z"/>
<path id="path1_fill" d="M 15.5137 0.630838C 15.5137 0.630838 15.4004 0.312413 14.6967 0.39998L 12.3672 0.415901C 12.1893 0.392019 12.0599 0.463665 12.0599 0.463665C 12.0599 0.463665 11.9224 0.53531 11.8576 0.710444C 11.4775 1.67368 10.9922 2.50158 10.9922 2.50158C 9.95683 4.237 9.53622 4.33252 9.36636 4.22107C 8.97002 3.9743 9.07517 3.21804 9.07517 2.67672C 9.07517 0.989066 9.33401 0.288531 8.56559 0.105437C 8.31484 0.0497129 8.12881 0.00991016 7.47363 0.00194955C 6.64051 -0.00601107 5.9368 0.00194939 5.54046 0.193004C 5.27354 0.320374 5.07132 0.606956 5.19265 0.622877C 5.34633 0.646759 5.69414 0.718405 5.88018 0.965184C 5.88018 0.965184 6.0824 1.29157 6.11475 2.00802C 6.20372 3.99022 5.79121 4.237 5.79121 4.237C 5.47575 4.40417 4.92573 4.12555 4.11687 2.48566C 4.11687 2.48566 3.64773 1.67368 3.28375 0.78209C 3.21904 0.614917 3.08962 0.52735 3.08962 0.52735C 3.08962 0.52735 2.94403 0.415901 2.73372 0.384059L 0.517452 0.39998C 0.177732 0.39998 0.0564028 0.551232 0.0564028 0.551232C 0.0564028 0.551232 -0.0649259 0.678601 0.0483142 0.941301C 1.77927 4.94549 3.75288 6.95156 3.75288 6.95156C 3.75288 6.95156 5.55664 8.80639 7.60305 8.67902L 8.53324 8.67902C 8.81634 8.65514 8.96193 8.50388 8.96193 8.50388C 8.96193 8.50388 9.09135 8.36059 9.08326 8.09789C 9.06708 6.87196 9.64946 6.68886 9.64946 6.68886C 10.2157 6.51373 10.9436 7.875 11.7201 8.4004C 11.7201 8.4004 12.3106 8.79843 12.7555 8.71086L 14.8262 8.67902C 15.9181 8.67106 15.4004 7.77947 15.4004 7.77947C 15.36 7.70782 15.1012 7.15854 13.8555 6.02017C 12.5613 4.83404 12.7312 5.0251 14.3004 2.97126C 15.2548 1.72144 15.635 0.957223 15.5137 0.630838Z"/>
</defs>
</svg>
